<?xml version="1.0" encoding="UTF-8" standalone="no"?>
<!-- Created with Inkscape (http://www.inkscape.org/) -->

<svg
   xmlns:dc="http://purl.org/dc/elements/1.1/"
   xmlns:cc="http://creativecommons.org/ns#"
   xmlns:rdf="http://www.w3.org/1999/02/22-rdf-syntax-ns#"
   xmlns:svg="http://www.w3.org/2000/svg"
   xmlns="http://www.w3.org/2000/svg"
   xmlns:sodipodi="http://sodipodi.sourceforge.net/DTD/sodipodi-0.dtd"
   xmlns:inkscape="http://www.inkscape.org/namespaces/inkscape"
   width="210mm"
   height="297mm"
   viewBox="0 0 210 297"
   version="1.1"
   id="svg3930"
   inkscape:version="0.92.5 (2060ec1f9f, 2020-04-08)"
   sodipodi:docname="Chungbuk.svg">
  <defs
     id="defs3924" />
  <sodipodi:namedview
     id="base"
     pagecolor="#ffffff"
     bordercolor="#666666"
     borderopacity="1.0"
     inkscape:pageopacity="0.0"
     inkscape:pageshadow="2"
     inkscape:zoom="0.49497475"
     inkscape:cx="-47.096846"
     inkscape:cy="327.25225"
     inkscape:document-units="mm"
     inkscape:current-layer="svg3930"
     showgrid="false"
     inkscape:object-paths="true"
     inkscape:snap-bbox="true"
     inkscape:window-width="1920"
     inkscape:window-height="1017"
     inkscape:window-x="-8"
     inkscape:window-y="-8"
     inkscape:window-maximized="1" />
  <metadata
     id="metadata3927">
    <rdf:RDF>
      <cc:Work
         rdf:about="">
        <dc:format>image/svg+xml</dc:format>
        <dc:type
           rdf:resource="http://purl.org/dc/dcmitype/StillImage" />
        <dc:title></dc:title>
      </cc:Work>
    </rdf:RDF>
  </metadata>
  <g
     inkscape:groupmode="layer"
     id="layer13"
     inkscape:label="충북"
     style="display:inline">
    <path
       style="fill:none;stroke:#000000;stroke-width:0.26458332px;stroke-linecap:butt;stroke-linejoin:miter;stroke-opacity:1"
       d="m 76.303869,100.31067 14.34021,-10.913543 6.414323,1.536854 1.102487,-3.641545 2.772921,2.572469 4.00905,-2.204974 4.07586,1.169305 -1.70385,1.570207 0.60135,1.202714 2.93997,-0.80181 1.40316,2.138157 2.90657,-0.768403 4.59104,1.952752 -2.46623,1.392213 -4.70107,5.740514 0.0472,2.64583 -3.47265,0.92132 -0.73233,-1.91351 -2.43322,0.0236 -0.21261,1.58277 -3.04744,-0.16536 -2.33872,2.3151 0.3071,1.86626 -2.763951,-0.0236 -4.512091,4.8192 2.102493,3.68527 -0.803198,8.17373 5.008184,1.01581 0.685083,2.03163 -1.889882,1.1103 -1.370166,5.40979 -6.732698,1.08668 -1.086683,-1.2993 -0.566963,0.66146 -0.544806,-0.46854 -1.937705,-2.57247 -0.133633,-3.75848 -1.386462,-1.03567 -2.037929,0.0835 0.167042,-3.70837 1.653728,-2.75622 -1.870885,-2.02123 -3.57473,-0.45102 -0.567946,-3.64154 -2.889851,-3.57474 2.973374,-4.76073 1.570207,0.43431 0.05011,-1.67043 -2.171565,-1.20271 z"
       id="path4843"
       inkscape:connector-curvature="0" />
  </g>
</svg>
