<?xml version="1.0" encoding="UTF-8" standalone="no"?>
<!-- Created with Inkscape (http://www.inkscape.org/) -->

<svg
   xmlns:dc="http://purl.org/dc/elements/1.1/"
   xmlns:cc="http://creativecommons.org/ns#"
   xmlns:rdf="http://www.w3.org/1999/02/22-rdf-syntax-ns#"
   xmlns:svg="http://www.w3.org/2000/svg"
   xmlns="http://www.w3.org/2000/svg"
   xmlns:sodipodi="http://sodipodi.sourceforge.net/DTD/sodipodi-0.dtd"
   xmlns:inkscape="http://www.inkscape.org/namespaces/inkscape"
   width="210mm"
   height="297mm"
   viewBox="0 0 210 297"
   version="1.1"
   id="svg3930"
   inkscape:version="0.92.5 (2060ec1f9f, 2020-04-08)"
   sodipodi:docname="Chungnam.svg">
  <defs
     id="defs3924" />
  <sodipodi:namedview
     id="base"
     pagecolor="#ffffff"
     bordercolor="#666666"
     borderopacity="1.0"
     inkscape:pageopacity="0.0"
     inkscape:pageshadow="2"
     inkscape:zoom="0.49497475"
     inkscape:cx="-47.096846"
     inkscape:cy="327.25225"
     inkscape:document-units="mm"
     inkscape:current-layer="svg3930"
     showgrid="false"
     inkscape:object-paths="true"
     inkscape:snap-bbox="true"
     inkscape:window-width="1920"
     inkscape:window-height="1017"
     inkscape:window-x="-8"
     inkscape:window-y="-8"
     inkscape:window-maximized="1" />
  <metadata
     id="metadata3927">
    <rdf:RDF>
      <cc:Work
         rdf:about="">
        <dc:format>image/svg+xml</dc:format>
        <dc:type
           rdf:resource="http://purl.org/dc/dcmitype/StillImage" />
        <dc:title></dc:title>
      </cc:Work>
    </rdf:RDF>
  </metadata>
  <g
     inkscape:groupmode="layer"
     id="layer10"
     inkscape:label="충남"
     style="display:inline">
    <path
       style="fill:none;stroke:#000000;stroke-width:0.26458332px;stroke-linecap:butt;stroke-linejoin:miter;stroke-opacity:1"
       d="m 76.303869,100.31067 1.77224,3.78755 2.171565,1.20271 -0.05011,1.67043 -1.570209,-0.43431 -1.854182,2.77292 -2.622582,-0.86862 -2.221679,-1.80407 -1.921,1.11919 0.835219,1.11919 0.100226,3.29075 1.753955,1.43658 -1.469983,1.9377 1.219417,3.52462 1.520098,1.26953 2.839738,-0.0501 -1.503391,5.47902 1.336346,0.33409 1.403165,3.12371 1.069078,-2.88985 2.472246,2.42213 1.152599,-1.30294 2.037929,-0.0835 1.386462,1.03567 0.133633,3.75848 1.937705,2.57247 -2.873147,2.17156 -3.841999,0.16704 -4.242903,-5.71288 -4.627105,2.20497 -3.023486,-2.82303 -6.197312,0.95214 -0.217157,2.07134 -5.712886,3.00679 -7.650591,-22.3003 2.672697,-2.52236 -12.91246,-4.35984 12.377533,-12.794872 8.079243,3.118305 3.106491,3.106487 1.346687,-0.5433 7.110677,-2.149744 z"
       id="path4834"
       inkscape:connector-curvature="0" />
  </g>
</svg>
