<?xml version="1.0" encoding="UTF-8" standalone="no"?>
<!-- Created with Inkscape (http://www.inkscape.org/) -->

<svg
   xmlns:dc="http://purl.org/dc/elements/1.1/"
   xmlns:cc="http://creativecommons.org/ns#"
   xmlns:rdf="http://www.w3.org/1999/02/22-rdf-syntax-ns#"
   xmlns:svg="http://www.w3.org/2000/svg"
   xmlns="http://www.w3.org/2000/svg"
   xmlns:sodipodi="http://sodipodi.sourceforge.net/DTD/sodipodi-0.dtd"
   xmlns:inkscape="http://www.inkscape.org/namespaces/inkscape"
   width="210mm"
   height="297mm"
   viewBox="0 0 210 297"
   version="1.1"
   id="svg3930"
   inkscape:version="0.92.5 (2060ec1f9f, 2020-04-08)"
   sodipodi:docname="Incheon.svg">
  <defs
     id="defs3924" />
  <sodipodi:namedview
     id="base"
     pagecolor="#ffffff"
     bordercolor="#666666"
     borderopacity="1.0"
     inkscape:pageopacity="0.0"
     inkscape:pageshadow="2"
     inkscape:zoom="0.49497475"
     inkscape:cx="-47.096846"
     inkscape:cy="327.25225"
     inkscape:document-units="mm"
     inkscape:current-layer="svg3930"
     showgrid="false"
     inkscape:object-paths="true"
     inkscape:snap-bbox="true"
     inkscape:window-width="1920"
     inkscape:window-height="1017"
     inkscape:window-x="-8"
     inkscape:window-y="-8"
     inkscape:window-maximized="1" />
  <metadata
     id="metadata3927">
    <rdf:RDF>
      <cc:Work
         rdf:about="">
        <dc:format>image/svg+xml</dc:format>
        <dc:type
           rdf:resource="http://purl.org/dc/dcmitype/StillImage" />
        <dc:title></dc:title>
      </cc:Work>
    </rdf:RDF>
  </metadata>
  <g
     inkscape:groupmode="layer"
     id="layer9"
     inkscape:label="인천"
     style="display:inline">
    <path
       style="fill:none;stroke:#000000;stroke-width:0.99999994px;stroke-linecap:butt;stroke-linejoin:miter;stroke-opacity:1"
       d="m 67.334957,191.88547 -6.072266,1.78711 5.714844,2.5 7.5,-0.71484 z m 99.213873,51.16922 -3.03125,3.03125 v 6.31445 l 13.63867,-0.25391 -0.25391,-5.68164 -4.79687,-0.75781 z m 19.95117,0.75781 -5.05078,2.9043 1.51562,11.61718 4.67188,10.73243 -5.8086,2.40039 0.37891,4.03906 7.44922,1.76953 8.71289,-2.14648 0.37891,-22.09766 z m -9.4707,11.23828 -3.91407,0.63086 -0.63085,8.08203 4.16601,0.12695 z m 38.51172,28.28516 -1.38868,22.60156 7.70313,2.01953 6.3125,-9.2168 -4.16602,-3.78711 -1.38867,-11.61718 z m -16.41407,4.79687 -19.57226,7.07227 2.77734,4.41992 11.86914,-0.88477 11.11328,-5.42968 z m -6.0625,34.09375 -5.93359,4.54492 2.65234,4.67188 4.54492,-0.88281 z m -45.45507,1.64063 v 8.33398 l 3.66015,2.02149 6.56641,-1.51563 z m 56.69335,1.13672 v 5.55664 l -3.4082,2.77734 2.01953,3.91406 8.71289,-3.66211 -2.01953,-6.43945 z"
       id="path4814"
       inkscape:connector-curvature="0"
       transform="scale(0.26458333)"
       sodipodi:nodetypes="ccccccccccccccccccccccccccccccccccccccccccccccccccccccccc" />
  </g>
</svg>
