<?xml version="1.0" encoding="UTF-8" standalone="no"?>
<!-- Created with Inkscape (http://www.inkscape.org/) -->

<svg
   xmlns:dc="http://purl.org/dc/elements/1.1/"
   xmlns:cc="http://creativecommons.org/ns#"
   xmlns:rdf="http://www.w3.org/1999/02/22-rdf-syntax-ns#"
   xmlns:svg="http://www.w3.org/2000/svg"
   xmlns="http://www.w3.org/2000/svg"
   xmlns:sodipodi="http://sodipodi.sourceforge.net/DTD/sodipodi-0.dtd"
   xmlns:inkscape="http://www.inkscape.org/namespaces/inkscape"
   width="210mm"
   height="297mm"
   viewBox="0 0 210 297"
   version="1.1"
   id="svg3930"
   inkscape:version="0.92.5 (2060ec1f9f, 2020-04-08)"
   sodipodi:docname="Jeonbuk.svg">
  <defs
     id="defs3924" />
  <sodipodi:namedview
     id="base"
     pagecolor="#ffffff"
     bordercolor="#666666"
     borderopacity="1.0"
     inkscape:pageopacity="0.0"
     inkscape:pageshadow="2"
     inkscape:zoom="0.49497475"
     inkscape:cx="-47.096846"
     inkscape:cy="327.25225"
     inkscape:document-units="mm"
     inkscape:current-layer="svg3930"
     showgrid="false"
     inkscape:object-paths="true"
     inkscape:snap-bbox="true"
     inkscape:window-width="1920"
     inkscape:window-height="1017"
     inkscape:window-x="-8"
     inkscape:window-y="-8"
     inkscape:window-maximized="1" />
  <metadata
     id="metadata3927">
    <rdf:RDF>
      <cc:Work
         rdf:about="">
        <dc:format>image/svg+xml</dc:format>
        <dc:type
           rdf:resource="http://purl.org/dc/dcmitype/StillImage" />
        <dc:title></dc:title>
      </cc:Work>
    </rdf:RDF>
  </metadata>
  <g
     inkscape:groupmode="layer"
     id="layer16"
     inkscape:label="전북"
     style="display:inline">
    <path
       style="fill:none;stroke:#000000;stroke-width:0.26458332px;stroke-linecap:butt;stroke-linejoin:miter;stroke-opacity:1"
       d="m 57.496357,136.77195 -2.548069,2.28125 2.787576,1.98437 0.472469,3.96875 -7.79576,5.19718 -0.755952,8.03199 2.834823,4.96094 5.811382,-1.79539 0.614212,-3.68527 3.212798,-0.42522 2.976562,2.88207 2.83482,-2.31511 0.236236,5.14993 11.103052,0.56696 2.645833,-2.26785 3.921503,2.40959 2.69308,-3.77976 -2.456846,-5.81138 2.07887,-7.89025 5.480654,-3.59078 1.086535,-1.93732 1.181322,-2.0314 -1.285711,-3.51193 -4.194984,0.67708 -1.086681,-1.2993 -0.566965,0.66146 -0.544806,-0.46854 -2.873103,2.17156 -3.842001,0.16704 -4.242901,-5.71288 -4.627107,2.20497 -3.023484,-2.82303 -6.197314,0.95214 -0.217157,2.07134 z"
       id="path4868"
       inkscape:connector-curvature="0" />
  </g>
</svg>
