<?xml version="1.0" encoding="UTF-8" standalone="no"?>
<!-- Created with Inkscape (http://www.inkscape.org/) -->

<svg
   xmlns:dc="http://purl.org/dc/elements/1.1/"
   xmlns:cc="http://creativecommons.org/ns#"
   xmlns:rdf="http://www.w3.org/1999/02/22-rdf-syntax-ns#"
   xmlns:svg="http://www.w3.org/2000/svg"
   xmlns="http://www.w3.org/2000/svg"
   xmlns:sodipodi="http://sodipodi.sourceforge.net/DTD/sodipodi-0.dtd"
   xmlns:inkscape="http://www.inkscape.org/namespaces/inkscape"
   width="210mm"
   height="297mm"
   viewBox="0 0 210 297"
   version="1.1"
   id="svg3930"
   inkscape:version="0.92.5 (2060ec1f9f, 2020-04-08)"
   sodipodi:docname="map.svg">
  <defs
     id="defs3924" />
  <sodipodi:namedview
     id="base"
     pagecolor="#ffffff"
     bordercolor="#666666"
     borderopacity="1.0"
     inkscape:pageopacity="0.0"
     inkscape:pageshadow="2"
     inkscape:zoom="0.49497475"
     inkscape:cx="-47.096846"
     inkscape:cy="327.25225"
     inkscape:document-units="mm"
     inkscape:current-layer="layer24"
     showgrid="false"
     inkscape:object-paths="true"
     inkscape:snap-bbox="true"
     inkscape:window-width="1920"
     inkscape:window-height="1017"
     inkscape:window-x="-8"
     inkscape:window-y="-8"
     inkscape:window-maximized="1" />
  <metadata
     id="metadata3927">
    <rdf:RDF>
      <cc:Work
         rdf:about="">
        <dc:format>image/svg+xml</dc:format>
        <dc:type
           rdf:resource="http://purl.org/dc/dcmitype/StillImage" />
        <dc:title></dc:title>
      </cc:Work>
    </rdf:RDF>
  </metadata>
  <g
     inkscape:groupmode="layer"
     id="layer6"
     inkscape:label="강원도"
     style="display:inline">
    <path
       style="display:inline;fill:none;stroke:#000000;stroke-width:0.26458332px;stroke-linecap:butt;stroke-linejoin:miter;stroke-opacity:1"
       d="m 67.725571,47.636321 4.710626,5.245163 3.975635,-1.971114 10.45692,10.122834 -2.873147,4.911079 0.835215,5.980155 9.48807,3.474503 -2.973375,2.605879 -0.701582,11.392363 6.414469,1.5368 1.102487,-3.641547 2.772921,2.572469 4.00905,-2.204974 4.07586,1.169305 -1.70385,1.570207 0.60135,1.202714 2.93997,-0.801809 1.40316,2.138156 2.90657,-0.768401 7.38332,3.140419 1.20271,-3.474505 3.34087,1.804069 9.88896,1.002263 4.57699,-4.242906 -32.60687,-56.995226 -0.96886,7.617182 -6.88218,4.309721 z"
       id="path4770"
       inkscape:connector-curvature="0" />
  </g>
  <g
     inkscape:groupmode="layer"
     id="layer24"
     inkscape:label="통합">
    <g
       inkscape:groupmode="layer"
       id="layer9"
       inkscape:label="인천"
       style="display:inline">
      <path
         style="fill:none;stroke:#000000;stroke-width:0.99999994px;stroke-linecap:butt;stroke-linejoin:miter;stroke-opacity:1"
         d="m 67.334957,191.88547 -6.072266,1.78711 5.714844,2.5 7.5,-0.71484 z m 99.213873,51.16922 -3.03125,3.03125 v 6.31445 l 13.63867,-0.25391 -0.25391,-5.68164 -4.79687,-0.75781 z m 19.95117,0.75781 -5.05078,2.9043 1.51562,11.61718 4.67188,10.73243 -5.8086,2.40039 0.37891,4.03906 7.44922,1.76953 8.71289,-2.14648 0.37891,-22.09766 z m -9.4707,11.23828 -3.91407,0.63086 -0.63085,8.08203 4.16601,0.12695 z m 38.51172,28.28516 -1.38868,22.60156 7.70313,2.01953 6.3125,-9.2168 -4.16602,-3.78711 -1.38867,-11.61718 z m -16.41407,4.79687 -19.57226,7.07227 2.77734,4.41992 11.86914,-0.88477 11.11328,-5.42968 z m -6.0625,34.09375 -5.93359,4.54492 2.65234,4.67188 4.54492,-0.88281 z m -45.45507,1.64063 v 8.33398 l 3.66015,2.02149 6.56641,-1.51563 z m 56.69335,1.13672 v 5.55664 l -3.4082,2.77734 2.01953,3.91406 8.71289,-3.66211 -2.01953,-6.43945 z"
         id="path4814"
         inkscape:connector-curvature="0"
         transform="scale(0.26458333)"
         sodipodi:nodetypes="ccccccccccccccccccccccccccccccccccccccccccccccccccccccccc" />
    </g>
    <g
       inkscape:groupmode="layer"
       id="layer23"
       inkscape:label="울릉"
       style="display:inline">
      <path
         style="fill:none;stroke:#000000;stroke-width:0.99999994px;stroke-linecap:butt;stroke-linejoin:miter;stroke-opacity:1"
         d="M 716.60742,279.12695 705,283.94922 l 1.96484,8.57031 8.57032,2.14258 2.14257,-4.64258 z m 17.85742,16.25 -5,2.32227 1.07032,5.35547 6.78711,-1.25 z"
         transform="scale(0.26458333)"
         id="path4911"
         inkscape:connector-curvature="0" />
    </g>
    <g
       inkscape:groupmode="layer"
       id="layer22"
       inkscape:label="제주"
       style="display:inline">
      <path
         style="fill:none;stroke:#000000;stroke-width:0.26458332px;stroke-linecap:butt;stroke-linejoin:miter;stroke-opacity:1"
         d="m 43.939732,236.71279 -5.291667,5.29167 0.09449,1.88988 3.307291,3.07106 18.851563,-4.53572 3.921503,-5.33891 0.330729,-2.45684 -4.771948,-1.6064 -11.481028,1.5119 z"
         id="path4908"
         inkscape:connector-curvature="0" />
    </g>
    <g
       inkscape:groupmode="layer"
       id="layer21"
       inkscape:label="부산"
       style="display:inline">
      <path
         style="fill:none;stroke:#000000;stroke-width:0.26458332px;stroke-linecap:butt;stroke-linejoin:miter;stroke-opacity:1"
         d="m 126.61894,172.18513 -1.1359,1.77066 0.50113,2.10475 4.27632,-5.27858 0.56794,2.90656 6.44788,-4.51017 1.9377,-2.90656 1.20272,-2.7061 -0.73027,-2.28211 -0.70631,-0.32372 -2.83974,1.53675 -7.24968,5.4122 -3.60814,2.00453 z"
         id="path4905"
         inkscape:connector-curvature="0" />
    </g>
    <g
       inkscape:groupmode="layer"
       id="layer20"
       inkscape:label="경남"
       style="display:inline">
      <path
         style="fill:none;stroke:#000000;stroke-width:0.26458332px;stroke-linecap:butt;stroke-linejoin:miter;stroke-opacity:1"
         d="m 94.730135,140.70665 -1.086535,1.93732 -5.480656,3.59078 -2.078868,7.89025 2.456844,5.81138 -2.69308,3.77976 -0.0877,4.72732 6.08025,6.31434 2.772957,12.69535 6.514763,0.30043 11.1585,-7.34991 7.71741,6.78196 3.20723,-3.77518 -0.93544,-9.48807 -5.57925,-5.51243 1.5368,-0.80181 8.38558,4.57699 -1.33635,-2.27179 3.60814,-2.00453 7.24968,-5.4122 2.83974,-1.53675 -7.34991,-6.08038 0.14156,-2.69136 -2.97656,-1.37046 -4.4881,2.83497 -2.97656,-1.55907 -3.35484,0.80305 -2.12597,-2.17351 -3.82715,0.94516 -6.52002,-1.22835 -2.83497,-6.3314 z"
         id="path4902"
         inkscape:connector-curvature="0" />
    </g>
    <g
       inkscape:groupmode="layer"
       id="layer19"
       inkscape:label="울산"
       style="display:inline">
      <path
         style="fill:none;stroke:#000000;stroke-width:0.26458332px;stroke-linecap:butt;stroke-linejoin:miter;stroke-opacity:1"
         d="m 144.65708,149.84855 -4.28632,0.0715 -1.27538,-1.55907 -5.1971,0.0946 -2.12648,3.73259 -0.14156,2.69131 7.34991,6.08038 3.20724,1.46998 0.73499,-0.93544 -0.26727,-4.67722 2.07134,-0.26727 1.40316,-4.47676 z"
         id="path4899"
         inkscape:connector-curvature="0" />
    </g>
    <g
       inkscape:groupmode="layer"
       id="layer18"
       inkscape:label="광주"
       style="display:inline">
      <path
         style="fill:none;stroke:#000000;stroke-width:0.26458332px;stroke-linecap:butt;stroke-linejoin:miter;stroke-opacity:1"
         d="m 58.966339,166.77292 -2.539061,1.73725 v 2.83974 l 2.372016,0.3675 1.971115,2.20497 3.741771,-1.43657 1.469984,0.4009 1.436574,-1.43657 0.100226,-2.73952 -1.469982,-0.0668 -1.336347,-2.80633 -3.608139,1.23612 z"
         id="path4873-4"
         inkscape:connector-curvature="0" />
    </g>
    <g
       inkscape:groupmode="layer"
       id="layer17"
       inkscape:label="전남"
       style="display:inline">
      <path
         style="fill:none;stroke:#000000;stroke-width:0.99999994px;stroke-linecap:butt;stroke-linejoin:miter;stroke-opacity:1"
         d="m 234.82227,594.48438 -12.14454,1.60742 -2.32031,13.92773 -21.96484,6.78516 -10.71485,-18.75 -15.44726,31.00586 -30.80859,123.99609 74.37109,12.12109 90.91406,-25.88476 50.88672,-30.80859 -10.48047,-47.98243 -22.98047,-23.86523 0.33203,-17.86719 -14.82226,-9.10742 -10,8.57227 -41.96485,-2.14258 -0.89257,-19.46485 -10.71289,8.75 z m 9.76171,32.30273 5.05079,10.60742 5.55468,0.25195 -0.3789,10.35352 -5.42969,5.42969 -5.55469,-1.51563 -14.14258,5.42969 -7.44921,-8.33398 -8.9668,-1.38868 v -10.73242 l 9.59765,-6.5664 8.08008,1.13671 z"
         id="path4871"
         transform="scale(0.26458333)"
         inkscape:connector-curvature="0" />
    </g>
    <g
       inkscape:groupmode="layer"
       id="layer16"
       inkscape:label="전북"
       style="display:inline">
      <path
         style="fill:none;stroke:#000000;stroke-width:0.26458332px;stroke-linecap:butt;stroke-linejoin:miter;stroke-opacity:1"
         d="m 57.496357,136.77195 -2.548069,2.28125 2.787576,1.98437 0.472469,3.96875 -7.79576,5.19718 -0.755952,8.03199 2.834823,4.96094 5.811382,-1.79539 0.614212,-3.68527 3.212798,-0.42522 2.976562,2.88207 2.83482,-2.31511 0.236236,5.14993 11.103052,0.56696 2.645833,-2.26785 3.921503,2.40959 2.69308,-3.77976 -2.456846,-5.81138 2.07887,-7.89025 5.480654,-3.59078 1.086535,-1.93732 1.181322,-2.0314 -1.285711,-3.51193 -4.194984,0.67708 -1.086681,-1.2993 -0.566965,0.66146 -0.544806,-0.46854 -2.873103,2.17156 -3.842001,0.16704 -4.242901,-5.71288 -4.627107,2.20497 -3.023484,-2.82303 -6.197314,0.95214 -0.217157,2.07134 z"
         id="path4868"
         inkscape:connector-curvature="0" />
    </g>
    <g
       inkscape:groupmode="layer"
       id="layer15"
       inkscape:label="대구"
       style="display:inline">
      <path
         style="fill:none;stroke:#000000;stroke-width:0.26458332px;stroke-linecap:butt;stroke-linejoin:miter;stroke-opacity:1"
         d="m 112.02269,151.66815 -1.03943,-2.69308 2.12611,-1.37016 -1.13392,-1.22842 0.23623,-1.93713 2.17336,-0.47247 -2.74032,-2.17337 1.93713,-2.36235 1.55915,1.74814 1.18117,-1.55915 -0.0945,-2.55134 6.09486,-0.56696 1.65365,5.10268 -2.92932,3.73251 -0.18898,2.45685 -1.51191,0.0472 -0.8032,-1.03943 -2.07887,0.89769 -0.61421,3.02381 z"
         id="path4848-0"
         inkscape:connector-curvature="0" />
    </g>
    <g
       inkscape:groupmode="layer"
       id="layer14"
       inkscape:label="경북"
       style="display:inline">
      <path
         style="fill:none;stroke:#000000;stroke-width:0.99999994px;stroke-linecap:butt;stroke-linejoin:miter;stroke-opacity:1"
         d="m 535.02539,341.66797 -17.29883,16.03515 -37.375,-3.7871 -12.62695,-6.81836 -4.54688,13.13086 -10.55273,-4.48829 -9.32227,5.26172 -17.76757,21.69727 0.17968,10 -13.125,3.48047 -2.76953,-7.23242 -9.19531,0.0898 -0.80273,5.98242 -11.51954,-0.625 -8.83789,8.75 1.16016,7.05274 -10.44727,-0.0879 -17.05273,18.21289 7.94531,13.92968 -3.03515,30.89258 18.92968,3.83985 2.58789,7.67773 -7.14257,4.19727 -5.17774,20.44531 -9.5918,1.54883 4.85938,13.27343 -4.46484,7.67774 30,12.85742 10.71484,23.92969 24.64258,4.64258 -3.92774,-10.17969 8.03516,-5.17774 -4.28516,-4.64257 0.89258,-7.32227 8.21485,-1.78516 -10.35743,-8.21484 7.32032,-8.92773 5.89257,6.60742 4.46485,-5.89258 -0.35742,-9.64453 23.03711,-2.14258 6.25,19.28711 -11.07227,14.10547 -0.71484,9.28711 -5.71289,0.17773 -3.03711,-3.92773 -7.85743,3.39258 -2.32031,11.42773 8.03516,8.21484 12.67969,-3.03515 11.25,5.89258 16.96289,-10.71485 11.25,5.17969 8.03711,-14.10742 19.64257,-0.35742 4.82032,5.89257 21.42968,-0.35742 11.42774,-58.39258 -15.89258,7.14258 -10.53516,-7.67773 10.89258,-97.32227 z"
         id="path4846"
         transform="scale(0.26458333)"
         inkscape:connector-curvature="0" />
    </g>
    <g
       inkscape:groupmode="layer"
       id="layer13"
       inkscape:label="충북"
       style="display:inline">
      <path
         style="fill:none;stroke:#000000;stroke-width:0.26458332px;stroke-linecap:butt;stroke-linejoin:miter;stroke-opacity:1"
         d="m 76.303869,100.31067 14.34021,-10.913543 6.414323,1.536854 1.102487,-3.641545 2.772921,2.572469 4.00905,-2.204974 4.07586,1.169305 -1.70385,1.570207 0.60135,1.202714 2.93997,-0.80181 1.40316,2.138157 2.90657,-0.768403 4.59104,1.952752 -2.46623,1.392213 -4.70107,5.740514 0.0472,2.64583 -3.47265,0.92132 -0.73233,-1.91351 -2.43322,0.0236 -0.21261,1.58277 -3.04744,-0.16536 -2.33872,2.3151 0.3071,1.86626 -2.763951,-0.0236 -4.512091,4.8192 2.102493,3.68527 -0.803198,8.17373 5.008184,1.01581 0.685083,2.03163 -1.889882,1.1103 -1.370166,5.40979 -6.732698,1.08668 -1.086683,-1.2993 -0.566963,0.66146 -0.544806,-0.46854 -1.937705,-2.57247 -0.133633,-3.75848 -1.386462,-1.03567 -2.037929,0.0835 0.167042,-3.70837 1.653728,-2.75622 -1.870885,-2.02123 -3.57473,-0.45102 -0.567946,-3.64154 -2.889851,-3.57474 2.973374,-4.76073 1.570207,0.43431 0.05011,-1.67043 -2.171565,-1.20271 z"
         id="path4843"
         inkscape:connector-curvature="0" />
    </g>
    <g
       inkscape:groupmode="layer"
       id="layer12"
       inkscape:label="대전"
       style="display:inline">
      <path
         style="fill:none;stroke:#000000;stroke-width:0.26458332px;stroke-linecap:butt;stroke-linejoin:miter;stroke-opacity:1"
         d="m 79.111778,118.51407 -2.305198,1.77067 -1.503389,5.47902 1.336344,0.33409 1.403165,3.12371 1.069078,-2.88985 2.472246,2.42213 1.152599,-1.30294 0.167042,-3.70837 1.65373,-2.75622 -1.870887,-2.02123 z"
         id="path4840"
         inkscape:connector-curvature="0" />
    </g>
    <g
       inkscape:groupmode="layer"
       id="layer11"
       inkscape:label="세종"
       style="display:inline">
      <path
         style="fill:none;stroke:#000000;stroke-width:0.26458332px;stroke-linecap:butt;stroke-linejoin:miter;stroke-opacity:1"
         d="m 76.773171,109.30997 -2.622582,-0.86862 -2.221677,-1.80407 -1.921002,1.11919 0.835221,1.11919 0.100224,3.29075 1.753955,1.43658 -1.469983,1.9377 1.219417,3.52462 1.5201,1.26953 2.839736,-0.0501 2.305198,-1.77067 -0.567946,-3.64155 -2.889851,-3.57473 z"
         id="path4837"
         inkscape:connector-curvature="0" />
    </g>
    <g
       inkscape:groupmode="layer"
       id="layer10"
       inkscape:label="충남"
       style="display:inline">
      <path
         style="fill:none;stroke:#000000;stroke-width:0.26458332px;stroke-linecap:butt;stroke-linejoin:miter;stroke-opacity:1"
         d="m 76.303869,100.31067 1.77224,3.78755 2.171565,1.20271 -0.05011,1.67043 -1.570209,-0.43431 -1.854182,2.77292 -2.622582,-0.86862 -2.221679,-1.80407 -1.921,1.11919 0.835219,1.11919 0.100226,3.29075 1.753955,1.43658 -1.469983,1.9377 1.219417,3.52462 1.520098,1.26953 2.839738,-0.0501 -1.503391,5.47902 1.336346,0.33409 1.403165,3.12371 1.069078,-2.88985 2.472246,2.42213 1.152599,-1.30294 2.037929,-0.0835 1.386462,1.03567 0.133633,3.75848 1.937705,2.57247 -2.873147,2.17156 -3.841999,0.16704 -4.242903,-5.71288 -4.627105,2.20497 -3.023486,-2.82303 -6.197312,0.95214 -0.217157,2.07134 -5.712886,3.00679 -7.650591,-22.3003 2.672697,-2.52236 -12.91246,-4.35984 12.377533,-12.794872 8.079243,3.118305 3.106491,3.106487 1.346687,-0.5433 7.110677,-2.149744 z"
         id="path4834"
         inkscape:connector-curvature="0" />
    </g>
    <g
       inkscape:groupmode="layer"
       id="layer8"
       inkscape:label="서울"
       style="display:inline">
      <path
         style="fill:none;stroke:#000000;stroke-width:0.26458332px;stroke-linecap:butt;stroke-linejoin:miter;stroke-opacity:1"
         d="m 61.572216,73.195179 -1.00226,1.336347 2.004523,3.073598 2.605876,2.305201 4.443357,-0.868627 3.340869,-4.04245 -1.937705,-0.30068 -0.868627,-4.744032 -1.870884,-0.100227 -1.637028,2.605879 -2.138156,-0.03341 -0.601355,2.104747 z"
         id="path4790-8"
         inkscape:connector-curvature="0" />
    </g>
    <g
       inkscape:groupmode="layer"
       id="layer7"
       inkscape:label="경기도"
       style="display:inline;opacity:1">
      <path
         style="fill:none;stroke:#000000;stroke-width:0.99999994px;stroke-linecap:butt;stroke-linejoin:miter;stroke-opacity:1"
         d="m 255.9707,180.04297 -36.00976,48.74414 -4.45117,23.48633 -13.47852,-0.66406 -1.54687,19.13085 25.23046,10.55274 4.10743,21.67383 -9.10743,12.76758 17.94532,11.33984 -20.26758,1.69531 -1.07031,19.91016 24.55273,11.07226 -0.17773,6.78516 -7.05469,0.35742 9.19726,12.85742 26.875,-8.125 17.67774,7.5 54.19922,-41.24804 2.65039,-43.05664 11.23828,-9.84961 -35.85938,-13.13282 -3.1582,-22.60156 10.85938,-18.5625 -39.52149,-38.25781 -15.02539,7.44922 z m 2.12305,83.97265 7.07031,0.37891 3.28321,17.93164 7.32421,1.13477 -12.62695,15.27929 -16.79297,3.28321 -9.84961,-8.71289 -7.57617,-11.61719 3.78906,-5.05078 8.83789,5.05078 2.27344,-7.95508 8.08008,0.12695 z"
         id="path4788"
         transform="scale(0.26458333)"
         inkscape:connector-curvature="0" />
    </g>
  </g>
</svg>
